<?xml version="1.0" encoding="UTF-8" standalone="no"?>
<!DOCTYPE svg PUBLIC "-//W3C//DTD SVG 1.1//EN" "http://www.w3.org/Graphics/SVG/1.1/DTD/svg11.dtd">
<svg width="100%" height="100%" viewBox="0 0 24 24" version="1.1" xmlns="http://www.w3.org/2000/svg" xmlns:xlink="http://www.w3.org/1999/xlink" xml:space="preserve" xmlns:serif="http://www.serif.com/" style="fill-rule:evenodd;clip-rule:evenodd;stroke-linecap:round;stroke-linejoin:round;">
    <circle cx="12" cy="12" r="10" style="fill:none;stroke:black;stroke-width:2px;"/>
    <g transform="matrix(0.0100732,8.05286e-36,8.05286e-36,-0.0100732,0.0286647,23.2476)">
        <path d="M724,1553L505,1355L651,1352L798,1349L805,1313C814,1265 852,1191 882,1163C918,1129 996,1098 1060,1093L1117,1087L1112,1044C1109,1012 1113,990 1129,960C1140,938 1150,917 1150,915C1150,912 1131,910 1108,910C1051,910 941,886 887,862C795,821 720,722 720,640C721,562 786,479 879,437C935,412 1117,402 1200,419C1376,456 1490,572 1490,716C1490,807 1460,859 1350,953C1270,1022 1260,1034 1260,1064C1260,1093 1271,1109 1333,1172C1434,1273 1461,1357 1426,1458L1411,1499L1490,1565C1533,1601 1571,1630 1574,1630C1577,1630 1580,1596 1580,1554C1580,1487 1577,1474 1555,1448C1531,1419 1530,1414 1530,1260C1530,1104 1530,1101 1556,1071C1576,1047 1590,1040 1618,1040C1697,1041 1710,1072 1710,1259C1710,1401 1701,1460 1678,1460C1674,1460 1670,1517 1670,1587C1670,1691 1673,1717 1687,1732C1703,1749 1691,1750 1323,1750L943,1750L724,1553ZM1179,1577C1249,1531 1311,1366 1295,1270C1282,1191 1223,1140 1145,1140C1039,1140 950,1268 947,1425C945,1514 967,1555 1030,1588C1084,1616 1125,1612 1179,1577ZM1279,817C1315,788 1353,750 1364,731C1389,688 1390,617 1366,572C1295,436 994,440 895,579C871,613 866,630 866,674C867,707 874,739 886,759C925,824 1031,868 1155,869C1213,870 1217,868 1279,817Z" style="fill-rule:nonzero;"/>
    </g>
</svg>
